<?xml version="1.0" standalone="no"?>
<!DOCTYPE svg PUBLIC "-//W3C//DTD SVG 20010904//EN"
 "http://www.w3.org/TR/2001/REC-SVG-20010904/DTD/svg10.dtd">
<svg version="1.0" xmlns="http://www.w3.org/2000/svg"
 width="1024.000000pt" height="1024.000000pt" viewBox="0 0 1024.000000 1024.000000"
 preserveAspectRatio="xMidYMid meet">

<g transform="translate(0.000000,1024.000000) scale(0.100000,-0.100000)"
fill="#000000" stroke="none">
<path d="M1369 9683 c-671 -3 -819 -6 -828 -17 -8 -9 -10 -353 -9 -1272 l3
-1259 1245 0 1245 0 3 1262 c2 1137 1 1263 -14 1277 -14 14 -63 16 -422 14
-224 -2 -774 -4 -1223 -5z m1279 -1280 l2 -893 -860 0 -860 0 0 889 c0 839 1
890 18 894 9 3 395 4 857 3 l840 -1 3 -892z"/>
<path d="M1275 8928 c-3 -7 -4 -247 -3 -533 l3 -520 505 -3 c466 -2 506 -1
518 15 9 13 12 133 12 519 0 276 -3 509 -6 518 -5 14 -60 16 -515 16 -399 0
-511 -3 -514 -12z"/>
<path d="M5626 9668 c-3 -13 -6 -98 -6 -190 l0 -168 -368 0 c-219 0 -372 -4
-378 -9 -5 -6 -7 -150 -4 -373 l5 -363 185 0 185 0 5 180 5 180 380 5 380 5 5
180 5 180 405 3 c228 1 408 6 413 11 15 15 8 364 -6 373 -7 4 -280 8 -608 8
l-597 0 -6 -22z"/>
<path d="M7212 9678 c-9 -9 -12 -306 -12 -1275 l0 -1263 23 -5 c12 -3 576 -4
1252 -3 l1230 3 3 1265 c2 1180 1 1266 -15 1278 -24 17 -2463 18 -2481 0z
m2108 -1268 l0 -890 -865 0 -865 0 0 890 0 890 865 0 865 0 0 -890z"/>
<path d="M7937 8933 c-4 -3 -7 -239 -7 -523 0 -425 2 -520 14 -529 9 -8 153
-10 517 -9 l504 3 0 530 0 530 -511 3 c-281 1 -514 -1 -517 -5z"/>
<path d="M3385 9658 c-3 -13 -4 -349 -3 -748 l3 -725 180 0 180 0 5 185 5 185
180 5 180 5 3 160 c1 88 0 170 -3 182 -5 22 -9 23 -183 25 l-177 3 -5 370 -5
370 -177 3 c-177 2 -178 2 -183 -20z"/>
<path d="M4491 9666 c-8 -9 -11 -66 -9 -187 l3 -174 190 0 190 0 0 185 0 185
-181 3 c-146 2 -183 0 -193 -12z"/>
<path d="M4120 9302 c-15 -5 -13 -355 2 -370 13 -13 321 -18 352 -6 14 5 16
32 16 190 0 140 -3 184 -12 186 -25 3 -348 3 -358 0z"/>
<path d="M6025 8928 c-3 -7 -6 -92 -7 -188 l-3 -175 -385 -5 -385 -5 0 -560 0
-560 190 0 190 0 5 370 5 370 190 0 190 0 5 -185 5 -185 178 -3 177 -2 -2
-368 -3 -367 -177 -3 -178 -2 -2 182 -3 183 -185 3 c-166 2 -186 1 -198 -15
-9 -13 -12 -99 -12 -370 1 -349 1 -353 22 -364 14 -8 77 -10 192 -8 l171 4 3
-181 2 -181 -67 -5 c-38 -2 -147 -3 -243 -2 -96 1 -237 2 -312 3 l-138 1 -2
558 -3 557 -185 0 -185 0 -5 -180 -5 -180 -185 0 -185 0 -5 180 -5 180 -187 3
-188 2 -2 188 -3 187 -349 3 c-249 2 -353 -1 -362 -9 -11 -9 -14 -78 -14 -365
0 -309 2 -355 16 -369 13 -13 40 -15 177 -13 l162 3 3 183 2 182 139 0 c76 0
159 3 185 6 l46 7 -2 -184 -3 -184 -180 -5 -180 -5 0 -510 0 -510 180 0 180 0
3 318 2 317 375 0 375 0 2 -182 3 -183 188 -3 187 -2 -2 -183 -3 -182 -180 0
-180 0 -6 185 c-3 102 -6 185 -7 185 -26 2 -361 -7 -370 -10 -10 -4 -12 -84
-10 -377 l3 -373 190 -5 190 -5 3 -292 2 -293 -195 0 -195 0 0 -204 c0 -154
-3 -205 -12 -208 -7 -3 -89 -4 -183 -4 l-170 1 -5 215 -5 215 -180 0 -180 0
-3 -389 c-2 -305 1 -391 10 -398 7 -4 86 -8 175 -8 101 0 164 -4 168 -10 4 -6
6 -88 6 -183 -1 -95 3 -178 7 -185 7 -9 52 -12 193 -10 l184 3 5 180 5 180
185 5 185 5 3 395 2 395 165 -4 c91 -1 177 0 190 3 l25 6 2 293 3 292 185 5
185 5 5 185 5 185 185 0 185 0 5 -190 5 -190 174 -3 c119 -2 178 1 187 9 11 9
14 51 14 195 l0 184 373 2 372 3 0 185 0 185 -370 5 -370 5 0 185 0 185 180 5
180 5 0 750 0 750 -180 5 -180 5 -5 370 -5 370 -178 3 c-137 2 -179 0 -182
-10z"/>
<path d="M4114 8177 c-2 -7 -3 -94 -2 -192 l3 -180 375 0 375 0 0 190 0 190
-373 3 c-298 2 -374 0 -378 -11z"/>
<path d="M585 6771 l-50 -6 0 -185 0 -185 174 -3 c110 -1 180 -7 188 -14 11
-8 13 -47 11 -177 l-3 -166 -185 -5 -185 -5 -3 -179 c-2 -123 1 -183 9 -192 9
-12 98 -14 508 -14 273 0 502 4 508 8 9 6 13 59 15 187 l3 180 170 0 170 0 3
-357 2 -358 -183 0 c-129 0 -187 -4 -195 -12 -8 -8 -12 -62 -12 -175 l0 -163
-162 -2 -163 -3 0 -405 0 -405 183 -3 182 -2 0 -333 c0 -182 3 -342 6 -354 6
-23 8 -23 180 -23 96 0 175 1 176 3 1 1 4 83 7 181 l6 179 333 -2 c245 -2 337
1 348 10 18 15 21 334 2 345 -16 10 -43 12 -215 13 l-153 1 -2 188 -3 187
-350 3 -350 2 -1 190 -1 190 727 0 c551 0 729 3 738 12 17 17 17 349 0 366 -8
8 -64 12 -185 12 l-173 0 0 154 c0 85 3 161 6 170 5 14 62 16 539 16 477 0
534 2 539 16 8 20 8 338 0 358 -6 14 -63 16 -545 16 l-539 0 2 178 3 177 175
6 c96 3 176 6 178 7 1 1 1 86 0 190 l-3 187 -545 0 -545 0 -6 -190 c-3 -104
-6 -191 -7 -193 -1 -1 -140 -1 -309 0 l-308 3 -5 190 -5 190 -325 1 c-179 0
-347 -2 -375 -5z"/>
<path d="M7464 6766 c-2 -6 -3 -93 -2 -191 l3 -180 180 0 180 0 2 175 c2 96 0
180 -5 186 -11 17 -352 26 -358 10z"/>
<path d="M8217 6773 c-4 -3 -7 -89 -7 -189 l0 -184 -187 -2 -188 -3 -3 -188
-2 -187 187 2 188 3 3 183 2 182 180 0 180 0 0 -748 c0 -583 3 -752 13 -765
10 -14 37 -17 197 -19 l185 -3 5 -190 5 -190 185 -3 185 -2 0 192 0 193 180 3
c128 2 181 6 187 15 4 6 8 181 8 389 -1 295 -4 379 -14 387 -8 7 -135 12 -372
13 l-359 3 -3 177 -2 178 182 2 183 3 5 180 5 180 180 5 180 5 3 179 c2 123
-1 183 -9 192 -10 12 -133 14 -744 14 -402 0 -735 -3 -738 -7z"/>
<path d="M7467 6014 c-13 -13 -8 -379 5 -392 18 -18 332 -17 347 2 8 9 11 72
9 202 l-3 189 -176 3 c-96 1 -178 -1 -182 -4z"/>
<path d="M3747 5634 c-13 -13 -8 -349 5 -362 14 -14 324 -17 346 -4 9 7 12 51
10 188 l-3 179 -176 3 c-96 1 -178 -1 -182 -4z"/>
<path d="M6735 5608 c-3 -7 -4 -182 -3 -388 l3 -375 545 0 545 0 0 195 0 195
-177 3 -178 2 -2 188 -3 187 -363 3 c-285 2 -364 0 -367 -10z"/>
<path d="M5635 5218 c-3 -7 -6 -173 -7 -368 l-3 -355 -188 -3 -187 -2 2 -198
3 -197 910 0 910 0 3 -162 2 -163 -547 -2 -548 -3 0 -170 0 -170 193 -3 192
-2 0 -395 0 -395 -364 0 c-297 0 -366 -3 -375 -14 -8 -9 -11 -66 -9 -182 l3
-169 373 -3 372 -2 0 -180 0 -180 -367 -2 -368 -3 -5 -180 -5 -180 -944 -3
c-741 -2 -947 -5 -953 -15 -4 -6 -8 -83 -8 -169 l0 -158 -159 0 c-122 0 -161
-3 -170 -14 -8 -9 -11 -107 -9 -337 l3 -324 155 -3 c85 -1 165 0 178 3 l22 5
0 330 0 330 558 -2 557 -3 0 -165 0 -165 -185 -5 -185 -5 0 -160 0 -160 375 0
375 0 5 330 5 330 185 0 185 0 5 -330 5 -330 370 0 370 0 0 160 0 160 -190 5
-190 5 0 155 0 155 377 3 378 2 2 -322 3 -323 1479 -3 c1177 -2 1481 0 1488
10 9 15 11 269 2 292 -5 14 -31 16 -185 16 l-179 0 0 339 c0 187 -3 342 -8
344 -4 3 -88 7 -187 8 l-180 3 -3 -174 c-2 -124 -6 -176 -15 -182 -6 -4 -94
-8 -193 -8 -157 0 -183 -2 -188 -16 -3 -9 -6 -81 -6 -160 l0 -144 -180 0 -180
0 0 148 c0 102 -4 152 -12 160 -8 8 -64 12 -185 12 -171 0 -173 0 -178 22 -3
13 -4 176 -3 363 l3 340 185 5 185 5 5 365 5 365 178 3 177 2 0 -360 c0 -198
-1 -361 -2 -362 -2 -1 -82 -4 -178 -7 l-175 -6 0 -185 0 -185 370 0 370 0 5
365 5 365 195 5 195 5 3 182 2 183 -197 2 -198 3 -3 198 -2 197 -190 0 -190 0
2 178 3 177 188 3 187 2 -2 538 -3 537 -185 0 -185 0 -6 -30 c-4 -16 -7 -177
-8 -358 l-1 -327 -172 2 -173 3 -3 164 c-1 101 -7 170 -13 178 -9 10 -87 13
-380 13 l-369 0 -2 188 -3 187 -362 3 -363 2 0 180 0 180 -352 2 -353 3 -5
185 -5 185 -188 3 c-144 2 -189 0 -192 -10z m2158 -1837 l37 -1 -2 -547 -3
-548 -535 0 -535 0 -3 547 -2 548 417 3 c230 1 456 2 503 0 47 -1 102 -2 123
-2z m-705 -2039 l2 -172 -167 2 -168 3 -3 160 c-1 87 0 165 3 172 3 11 40 13
167 11 l163 -3 3 -173z"/>
<path d="M7097 3034 c-10 -10 -8 -356 1 -372 7 -9 51 -12 188 -10 l179 3 0
190 0 190 -181 3 c-99 1 -183 -1 -187 -4z"/>
<path d="M540 4931 c-11 -21 -14 -298 -4 -350 l7 -31 186 2 186 3 0 195 0 195
-182 3 c-172 2 -183 1 -193 -17z"/>
<path d="M3031 4916 c-8 -9 -11 -71 -9 -201 l3 -188 184 2 c102 1 188 4 193 7
4 3 8 93 8 200 l0 194 -184 0 c-144 0 -186 -3 -195 -14z"/>
<path d="M7842 4842 c-9 -7 -12 -53 -10 -198 l3 -189 176 -3 c141 -2 178 0
188 12 8 9 11 69 9 197 l-3 184 -175 2 c-96 2 -181 -1 -188 -5z"/>
<path d="M2636 4514 c-3 -8 -6 -91 -6 -184 0 -130 3 -170 14 -179 9 -8 69 -11
192 -9 l179 3 0 190 0 190 -186 3 c-164 2 -187 0 -193 -14z"/>
<path d="M9355 4437 c-3 -6 -4 -183 -3 -392 l3 -380 180 0 180 0 3 380 c2 348
1 381 -15 393 -24 17 -342 17 -348 -1z"/>
<path d="M3357 4174 c-4 -4 -7 -89 -7 -189 0 -143 3 -185 14 -194 9 -8 70 -11
197 -9 l184 3 0 195 0 195 -191 3 c-104 1 -193 -1 -197 -4z"/>
<path d="M750 3850 l-205 -5 -3 -189 c-1 -107 2 -193 7 -200 7 -8 102 -10 343
-6 l333 5 0 200 0 200 -135 0 c-74 1 -227 -2 -340 -5z"/>
<path d="M2642 3788 c-18 -18 -17 -361 2 -377 9 -8 70 -11 197 -9 l184 3 0
195 0 195 -185 3 c-136 2 -189 -1 -198 -10z"/>
<path d="M5647 3423 c-4 -3 -7 -97 -7 -209 0 -192 1 -202 20 -207 29 -8 284
-9 303 -1 15 5 17 27 17 209 0 202 0 203 -22 209 -31 8 -303 8 -311 -1z"/>
<path d="M3377 3413 c-4 -3 -7 -93 -7 -200 l0 -193 359 0 c285 0 361 -3 370
-13 6 -8 12 -81 13 -193 l3 -179 185 -5 185 -5 3 -160 c1 -88 5 -166 7 -173 4
-10 46 -12 187 -10 l183 3 5 170 5 170 185 5 185 5 3 193 c1 105 1 193 0 194
-2 1 -169 5 -373 8 l-370 5 -5 190 -5 190 -556 3 c-305 1 -559 -1 -562 -5z"/>
<path d="M8967 3383 c-4 -3 -7 -82 -7 -174 0 -167 0 -169 23 -174 12 -3 99 -4
192 -3 l170 3 3 171 2 171 -52 6 c-70 9 -323 9 -331 0z"/>
<path d="M541 3076 c-8 -10 -10 -344 -9 -1247 l3 -1234 1240 0 1240 0 3 1234
c1 903 -1 1237 -9 1247 -17 21 -2451 21 -2468 0z m2074 -1236 l0 -855 -845 0
-845 0 -3 845 c-1 465 0 851 3 858 3 10 178 12 847 10 l843 -3 0 -855z"/>
<path d="M1272 1838 l3 -513 483 -3 c323 -1 489 1 503 8 19 11 19 23 17 513
l-3 502 -503 3 -502 2 2 -512z"/>
<path d="M3377 2664 c-4 -4 -7 -173 -7 -374 0 -282 3 -370 13 -377 6 -5 87
-10 178 -12 132 -1 168 1 178 12 8 11 11 115 9 383 l-3 369 -181 3 c-99 1
-183 -1 -187 -4z"/>
<path d="M4110 2105 l0 -195 143 -2 c142 -1 201 -1 225 1 9 1 12 46 12 190 l0
188 -37 7 c-21 3 -107 6 -190 6 l-153 0 0 -195z"/>
<path d="M9362 2258 c-8 -8 -12 -62 -12 -184 0 -147 2 -173 16 -178 23 -9 327
-7 342 2 9 7 12 51 10 188 l-3 179 -170 3 c-124 2 -174 -1 -183 -10z"/>
</g>
</svg>
